<svg width="296" height="218" viewBox="0 0 296 218" fill="none" xmlns="http://www.w3.org/2000/svg">
<path d="M260.213 0.0292969C260.667 0.011549 261.123 3.63954e-06 261.581 0C280.59 -1.66181e-06 296 15.41 296 34.4189C296 49.041 286.881 61.5315 274.021 66.5186L261.572 73.0439C282.363 87.3101 296.001 111.244 296.001 138.363C296.001 181.393 261.669 216.404 218.902 217.499V217.526H35.7949L35.7852 217.495C35.3319 217.513 34.8765 217.525 34.4189 217.525C15.4102 217.525 0.000185556 202.116 0 183.107C2.69561e-05 168.488 9.11517 155.999 21.9717 151.01L34.4268 144.479C13.6373 130.213 0.000151201 106.281 0 79.1631C-3.76179e-06 36.1332 34.3319 1.12075 77.0977 0.0253906V0H260.205L260.213 0.0292969Z" fill="url(#paint0_linear_0_1)"/>
<path d="M260.213 0.0292969C260.667 0.011549 261.123 3.63954e-06 261.581 0C280.59 -1.66181e-06 296 15.41 296 34.4189C296 49.041 286.881 61.5315 274.021 66.5186L261.572 73.0439C282.363 87.3101 296.001 111.244 296.001 138.363C296.001 181.393 261.669 216.404 218.902 217.499V217.526H35.7949L35.7852 217.495C35.3319 217.513 34.8765 217.525 34.4189 217.525C15.4102 217.525 0.000185556 202.116 0 183.107C2.69561e-05 168.488 9.11517 155.999 21.9717 151.01L34.4268 144.479C13.6373 130.213 0.000151201 106.281 0 79.1631C-3.76179e-06 36.1332 34.3319 1.12075 77.0977 0.0253906V0H260.205L260.213 0.0292969Z" fill="black" fill-opacity="0.01"/>
<defs>
<linearGradient id="paint0_linear_0_1" x1="148" y1="0" x2="148" y2="217.526" gradientUnits="userSpaceOnUse">
<stop stop-color="#FF4400"/>
<stop offset="1" stop-color="#FDD387"/>
</linearGradient>
</defs>
</svg>
